<svg width="33" height="30" viewBox="0 0 33 30" fill="none" xmlns="http://www.w3.org/2000/svg">
<path d="M17.4155 26.1593C13.1288 26.1593 10.2699 30.5348 6.09657 29.555C-8.36648 26.1593 6.09658 0 16.5352 0C21.6022 0 28.798 7.37455 26.3449 10.6901C23.7038 13.5827 20.6915 9.5582 15.4033 9.5582C8.10887 9.5582 6.09657 18.4786 11.0015 20.6256C16.3948 22.9864 20.0567 15.8465 25.3388 15.8465C32.6623 15.8465 35.0228 27.2912 28.483 29.8065C25.3388 31.0158 21.7023 26.1593 17.4155 26.1593Z" fill="url(#paint0_radial_7641_4307)"/>
<path fill-rule="evenodd" clip-rule="evenodd" d="M15.4087 26.4695C16.0472 26.2769 16.7121 26.1592 17.4154 26.1592C19.4524 26.1592 21.3426 27.2558 23.103 28.2771C25.047 29.405 26.8327 30.441 28.4828 29.8064C30.155 29.1632 31.2453 27.9362 31.8195 26.466C30.839 23.8051 28.59 21.6316 25.3985 21.6316C23.0975 21.6316 21.104 22.9864 19.1409 24.3206C17.9078 25.1587 16.6866 25.9887 15.4087 26.4695Z" fill="url(#paint1_radial_7641_4307)"/>
<path d="M21.0083 10.879L21.0083 10.879C23.1589 11.7192 24.8142 12.366 26.3447 10.6896C27.7859 8.74174 25.8967 5.39283 23.0653 2.96145C23.0143 2.9176 22.9586 2.87925 22.8993 2.84738C21.6443 2.17267 20.3544 1.76025 19.1761 1.76025C12.2409 1.76025 8.36988 8.81036 8.31545 16.1613C8.35823 13.0286 10.8531 9.55774 15.4031 9.55774C17.6267 9.55774 19.4479 10.2693 21.0083 10.879Z" fill="url(#paint2_radial_7641_4307)"/>
<defs>
<radialGradient id="paint0_radial_7641_4307" cx="0" cy="0" r="1" gradientUnits="userSpaceOnUse" gradientTransform="translate(-9.5 3) rotate(27.7451) scale(48.386 55.3472)">
<stop stop-color="#BE40C0"/>
<stop offset="1" stop-color="#FBA82B"/>
</radialGradient>
<radialGradient id="paint1_radial_7641_4307" cx="0" cy="0" r="1" gradientUnits="userSpaceOnUse" gradientTransform="translate(20.4998 24) rotate(24.2602) scale(21.1715 16.3506)">
<stop stop-color="#48CCE0"/>
<stop offset="0.38" stop-color="#505ADD"/>
<stop offset="0.682" stop-color="#BE40C0"/>
<stop offset="0.943" stop-color="#FBA82B"/>
</radialGradient>
<radialGradient id="paint2_radial_7641_4307" cx="0" cy="0" r="1" gradientUnits="userSpaceOnUse" gradientTransform="translate(-7.50017 -3.5) rotate(26.6349) scale(39.066 40.6626)">
<stop offset="0.310718" stop-color="#48CCE0"/>
<stop offset="0.399794" stop-color="#505ADD"/>
<stop offset="0.691985" stop-color="#BE40C0"/>
<stop offset="0.943" stop-color="#FBA82B"/>
</radialGradient>
</defs>
</svg>
